<svg width="1080" height="1080" viewBox="0 0 1080 1080" fill="none" xmlns="http://www.w3.org/2000/svg">
<mask id="path-1-inside-1_2021_10" fill="white">
<path d="M954.726 568.932C954.726 459.38 910.881 354.315 832.836 276.849C754.792 199.384 648.941 155.865 538.569 155.865C428.197 155.865 322.346 199.384 244.302 276.849C166.257 354.315 122.412 459.38 122.412 568.932L538.569 568.932H954.726Z"/>
</mask>
<path d="M954.726 568.932C954.726 459.38 910.881 354.315 832.836 276.849C754.792 199.384 648.941 155.865 538.569 155.865C428.197 155.865 322.346 199.384 244.302 276.849C166.257 354.315 122.412 459.38 122.412 568.932L538.569 568.932H954.726Z" fill="#F07E7E" stroke="#912D2D" stroke-width="20" mask="url(#path-1-inside-1_2021_10)"/>
<path d="M999.936 550.589C998.089 601.431 956.292 642.081 905 642.081H174C122.708 642.081 80.9106 601.431 79.0645 550.589H999.936Z" fill="#F07E7E" stroke="#912D2D" stroke-width="10"/>
<mask id="path-3-inside-2_2021_10" fill="white">
<path d="M576.05 147.745C581.573 147.745 586.143 143.232 585.147 137.8C583.359 128.045 578.963 119.001 572.416 111.863C563.686 102.346 551.846 97 539.5 97C527.154 97 515.314 102.346 506.584 111.863C500.037 119.001 495.641 128.045 493.853 137.8C492.857 143.232 497.427 147.745 502.95 147.745L539.5 147.745H576.05Z"/>
</mask>
<path d="M576.05 147.745C581.573 147.745 586.143 143.232 585.147 137.8C583.359 128.045 578.963 119.001 572.416 111.863C563.686 102.346 551.846 97 539.5 97C527.154 97 515.314 102.346 506.584 111.863C500.037 119.001 495.641 128.045 493.853 137.8C492.857 143.232 497.427 147.745 502.95 147.745L539.5 147.745H576.05Z" fill="#912D2D" stroke="#912D2D" stroke-width="20" mask="url(#path-3-inside-2_2021_10)"/>
<path d="M864.928 383.414C884.965 411.87 912.409 487.949 898.444 478.815C874.722 466.61 845.854 391.323 847.66 397.413C837.419 362.906 781.191 311.454 792.732 301.797C804.273 292.139 847.815 351.152 864.928 383.414Z" fill="#C85656"/>
<path d="M358.886 291.862C303.026 328.399 239.719 473.532 216.443 446.128C181.996 432.935 229.553 355.94 291.854 291.862C354.155 227.784 487.364 180.222 487.364 206.61C475.261 242.132 414.746 255.326 358.886 291.862Z" fill="#C85656"/>
<path d="M344.18 695.24C350.06 695.24 354.74 697.16 358.22 701C361.76 704.78 363.53 710 363.53 716.66V746H348.23V718.73C348.23 715.37 347.36 712.76 345.62 710.9C343.88 709.04 341.54 708.11 338.6 708.11C335.66 708.11 333.32 709.04 331.58 710.9C329.84 712.76 328.97 715.37 328.97 718.73V746H313.58V695.78H328.97V702.44C330.53 700.22 332.63 698.48 335.27 697.22C337.91 695.9 340.88 695.24 344.18 695.24ZM427.415 695.78V746H412.025V739.16C410.465 741.38 408.335 743.18 405.635 744.56C402.995 745.88 400.055 746.54 396.815 746.54C392.975 746.54 389.585 745.7 386.645 744.02C383.705 742.28 381.425 739.79 379.805 736.55C378.185 733.31 377.375 729.5 377.375 725.12V695.78H392.675V723.05C392.675 726.41 393.545 729.02 395.285 730.88C397.025 732.74 399.365 733.67 402.305 733.67C405.305 733.67 407.675 732.74 409.415 730.88C411.155 729.02 412.025 726.41 412.025 723.05V695.78H427.415ZM462.499 746.72C458.119 746.72 454.219 745.97 450.799 744.47C447.379 742.97 444.679 740.93 442.699 738.35C440.719 735.71 439.609 732.77 439.369 729.53H454.579C454.759 731.27 455.569 732.68 457.009 733.76C458.449 734.84 460.219 735.38 462.319 735.38C464.239 735.38 465.709 735.02 466.729 734.3C467.809 733.52 468.349 732.53 468.349 731.33C468.349 729.89 467.599 728.84 466.099 728.18C464.599 727.46 462.169 726.68 458.809 725.84C455.209 725 452.209 724.13 449.809 723.23C447.409 722.27 445.339 720.8 443.599 718.82C441.859 716.78 440.989 714.05 440.989 710.63C440.989 707.75 441.769 705.14 443.329 702.8C444.949 700.4 447.289 698.51 450.349 697.13C453.469 695.75 457.159 695.06 461.419 695.06C467.719 695.06 472.669 696.62 476.269 699.74C479.929 702.86 482.029 707 482.569 712.16H468.349C468.109 710.42 467.329 709.04 466.009 708.02C464.749 707 463.069 706.49 460.969 706.49C459.169 706.49 457.789 706.85 456.829 707.57C455.869 708.23 455.389 709.16 455.389 710.36C455.389 711.8 456.139 712.88 457.639 713.6C459.199 714.32 461.599 715.04 464.839 715.76C468.559 716.72 471.589 717.68 473.929 718.64C476.269 719.54 478.309 721.04 480.049 723.14C481.849 725.18 482.779 727.94 482.839 731.42C482.839 734.36 481.999 737 480.319 739.34C478.699 741.62 476.329 743.42 473.209 744.74C470.149 746.06 466.579 746.72 462.499 746.72ZM492.795 720.8C492.795 715.64 493.755 711.11 495.675 707.21C497.655 703.31 500.325 700.31 503.685 698.21C507.045 696.11 510.795 695.06 514.935 695.06C518.475 695.06 521.565 695.78 524.205 697.22C526.905 698.66 528.975 700.55 530.415 702.89V695.78H545.805V746H530.415V738.89C528.915 741.23 526.815 743.12 524.115 744.56C521.475 746 518.385 746.72 514.845 746.72C510.765 746.72 507.045 745.67 503.685 743.57C500.325 741.41 497.655 738.38 495.675 734.48C493.755 730.52 492.795 725.96 492.795 720.8ZM530.415 720.89C530.415 717.05 529.335 714.02 527.175 711.8C525.075 709.58 522.495 708.47 519.435 708.47C516.375 708.47 513.765 709.58 511.605 711.8C509.505 713.96 508.455 716.96 508.455 720.8C508.455 724.64 509.505 727.7 511.605 729.98C513.765 732.2 516.375 733.31 519.435 733.31C522.495 733.31 525.075 732.2 527.175 729.98C529.335 727.76 530.415 724.73 530.415 720.89ZM568.189 690.56C565.489 690.56 563.269 689.78 561.529 688.22C559.849 686.6 559.009 684.62 559.009 682.28C559.009 679.88 559.849 677.9 561.529 676.34C563.269 674.72 565.489 673.91 568.189 673.91C570.829 673.91 572.989 674.72 574.669 676.34C576.409 677.9 577.279 679.88 577.279 682.28C577.279 684.62 576.409 686.6 574.669 688.22C572.989 689.78 570.829 690.56 568.189 690.56ZM575.929 752.48C575.929 758.66 574.369 763.1 571.249 765.8C568.129 768.56 563.779 769.94 558.199 769.94H552.169V756.89H555.859C557.539 756.89 558.739 756.56 559.459 755.9C560.179 755.24 560.539 754.16 560.539 752.66V695.78H575.929V752.48ZM598.334 690.56C595.634 690.56 593.414 689.78 591.674 688.22C589.994 686.6 589.154 684.62 589.154 682.28C589.154 679.88 589.994 677.9 591.674 676.34C593.414 674.72 595.634 673.91 598.334 673.91C600.974 673.91 603.134 674.72 604.814 676.34C606.554 677.9 607.424 679.88 607.424 682.28C607.424 684.62 606.554 686.6 604.814 688.22C603.134 689.78 600.974 690.56 598.334 690.56ZM605.984 695.78V746H590.594V695.78H605.984ZM617.677 720.8C617.677 715.64 618.637 711.11 620.557 707.21C622.537 703.31 625.207 700.31 628.567 698.21C631.927 696.11 635.677 695.06 639.817 695.06C643.357 695.06 646.447 695.78 649.087 697.22C651.787 698.66 653.857 700.55 655.297 702.89V695.78H670.687V746H655.297V738.89C653.797 741.23 651.697 743.12 648.997 744.56C646.357 746 643.267 746.72 639.727 746.72C635.647 746.72 631.927 745.67 628.567 743.57C625.207 741.41 622.537 738.38 620.557 734.48C618.637 730.52 617.677 725.96 617.677 720.8ZM655.297 720.89C655.297 717.05 654.217 714.02 652.057 711.8C649.957 709.58 647.377 708.47 644.317 708.47C641.257 708.47 638.647 709.58 636.487 711.8C634.387 713.96 633.337 716.96 633.337 720.8C633.337 724.64 634.387 727.7 636.487 729.98C638.647 732.2 641.257 733.31 644.317 733.31C647.377 733.31 649.957 732.2 652.057 729.98C654.217 727.76 655.297 724.73 655.297 720.89ZM716.021 695.24C721.901 695.24 726.581 697.16 730.061 701C733.601 704.78 735.371 710 735.371 716.66V746H720.071V718.73C720.071 715.37 719.201 712.76 717.461 710.9C715.721 709.04 713.381 708.11 710.441 708.11C707.501 708.11 705.161 709.04 703.421 710.9C701.681 712.76 700.811 715.37 700.811 718.73V746H685.421V695.78H700.811V702.44C702.371 700.22 704.471 698.48 707.111 697.22C709.751 695.9 712.721 695.24 716.021 695.24Z" fill="#990000"/>
<path d="M698.352 313.156C695.164 316.057 693.516 316.75 690.838 316.221C690.296 309.444 691.115 304.103 699.535 285.021L705.867 267.104L706.841 274.176C730.053 252.445 743.69 240.945 770.716 223.409C770.716 223.409 781.78 215 804.881 200.068C844.611 159.91 851.848 156.06 857.693 136.256L860.685 130.833L859.084 151.973C858.229 170.341 855.919 180.626 851.361 198.968C846.233 215.181 841.939 223.77 832.156 238.341C823.829 250.044 818.419 256.165 808.012 266.632C794.794 278.681 786.575 283.37 770.299 287.615C745.851 293.172 731.922 293.687 706.841 291.859L698.352 313.156Z" fill="#55B94A" stroke="black"/>
<path d="M734.047 184.115C727.586 183.875 698.535 228.819 706.911 275.277L742.467 243.292L805.646 198.654C813.123 194.126 816.972 190.887 823.389 184.194L839.671 167.219L851.5 151.03L855.953 141.364L860.545 130.754C861.446 126.784 863.31 123.017 860.545 124.232L847.255 134.684L833.339 142.7L802.724 155.588C774.349 160.415 757.979 166.505 734.047 184.115Z" fill="#85C46A" stroke="#85C46A"/>
<path d="M698.909 313.627C695.732 316.082 693.61 317.322 690.142 316.928C689.521 311.942 690.835 306.552 696.126 292.487L704.406 271.976C705.223 268.462 705.096 267.204 705.241 265.925C705.439 252.399 706.173 244.96 708.302 231.896C709.734 222.989 711.063 218.063 715.121 209.499C720.828 197.81 725.14 192.141 734.465 183.329C743.648 176.017 749.321 172.425 760.766 167.298C772.876 161.942 780.015 159.818 793.261 157.317L803.42 154.724L828.886 143.878C834.32 141.833 837.367 140.47 842.802 137.749C847.362 134.793 849.882 132.994 854.283 129.418C856.865 126.951 859.293 124.074 860.545 124.074C861.798 124.074 861.572 125.181 861.659 126.825L860.545 135.391L859.641 144.743C859.076 158.567 858.337 164.743 856.858 175.156C855.169 185.602 854.048 190.781 851.778 198.968C848.6 209.654 846.282 214.972 841.689 223.88C836.271 234.117 832.376 239.486 824.99 248.871L813.996 261.288C806.758 269.393 802.232 273.17 793.539 278.892C784.442 284.096 778.983 286.161 768.768 288.715C760.743 290.482 756.156 291.207 747.894 292.251C736.468 293.289 730.336 293.255 719.714 292.487H713.451H707.189L702.04 303.489L698.909 313.627Z" stroke="#144C1F"/>
<path d="M738.24 208.196C741.508 200.703 744.262 197.71 750.695 194.365C745.672 205.498 744.464 211.99 743.528 223.757C746.188 212.596 747.846 206.346 753.269 195.308C759.586 185.168 763.928 180.731 772.891 174.718C762.961 184.666 758.283 191.137 751.599 204.345C745.807 215.557 745.242 222.34 746.45 233.591L754.522 227.478L756.609 216.841C759.547 206.072 761.726 200.138 767.324 189.885C767.618 191.883 839.899 161.377 838.923 163.559C837.948 165.741 795.853 211.269 754.522 227.478L746.45 233.591L731.003 245.289C730.919 238.747 731.112 235.068 732.186 228.472C733.135 220.521 734.359 216.08 738.24 208.196Z" fill="#64BC4E"/>
<path d="M708.618 268.213L705.583 276.422C705.187 277.492 706.605 278.283 707.308 277.385L711.294 272.29C716.481 266.871 718.572 262.068 723.61 255.866L730.777 248.793C733.569 246.185 735.252 244.667 738.431 241.877C769.464 216.886 793.052 212.328 826.451 179.557C826.451 179.557 845.516 161.482 852.405 146.708L857.397 134.277C857.756 133.382 856.766 132.547 855.944 133.053L855.721 133.191C855.555 133.293 855.422 133.442 855.339 133.62L847.843 149.707C847.822 149.751 847.798 149.794 847.772 149.834C842.411 157.988 838.938 162.364 832.365 169.97C825.16 178.064 820.554 182.148 812.88 187.843C812.175 188.366 811.191 187.785 811.308 186.914C812.148 180.703 812.918 176.516 814.671 169.502C814.685 169.448 814.703 169.393 814.726 169.341C816.297 165.775 817.699 163.277 819.592 160.621C820.253 159.695 819.425 158.852 818.687 159.718C816.921 161.793 815.305 164.545 813.23 168.791C809.192 177.827 808.228 183.038 807.493 192.133C807.469 192.429 807.312 192.704 807.07 192.875C797.076 199.944 791.183 203.804 780.319 210.128C769.586 215.904 763.599 219.218 753.46 226.474C744.164 233.339 737.586 238.517 730.777 244.557C727.083 247.834 723.32 251.365 719.019 255.557C718.399 256.16 717.358 255.747 717.329 254.883C717.05 246.291 717.621 240.835 719.783 231.661C722.718 220.823 725.038 216.153 731.473 206.984C737.189 198.937 741.077 193.937 746.633 187.486C747.377 186.622 746.381 185.447 745.443 186.095C741.682 188.692 738.815 191.315 735.022 195.589C728.861 202.765 725.951 207.122 721.453 215.314C717.72 223.685 715.979 228.554 714.286 237.948C713.025 244.047 710.523 256.272 710.529 256.573C710.535 256.885 709.297 264.285 708.666 268.035C708.655 268.096 708.639 268.155 708.618 268.213Z" fill="#3A9945"/>
<path d="M708.72 279.127C720.754 262.943 728.488 254.573 744.972 241.563C766.079 226.888 778.417 218.424 804.185 203.605C816.174 194.773 822.251 189.187 831.669 177.828C839.842 167.969 844.041 162.3 850.734 151.894M850.734 151.894C855.106 144.58 856.746 140.424 858.806 132.955M850.734 151.894C843.198 162.406 838.596 167.947 829.721 177.2C823.799 184.243 820.414 187.418 814.344 192.681C809.127 197.841 798.121 203.797 798.201 204.076C798.281 204.356 768.055 222.017 749.355 234.254C731.998 247.072 723.91 255.367 711.364 271.426" stroke="#144C1F"/>
<g opacity="0.9">
<path d="M326.599 697.116C329.805 700.047 331.463 700.747 334.157 700.213C334.702 693.365 333.879 687.969 325.409 668.69L319.041 650.587L318.061 657.733C294.714 635.776 280.998 624.157 253.814 606.439C253.814 606.439 242.687 597.943 219.451 582.857C179.49 542.282 172.211 538.392 166.332 518.383L163.323 512.904L164.933 534.263C165.793 552.821 168.116 563.213 172.701 581.745C177.859 598.126 182.178 606.804 192.017 621.525C200.393 633.35 205.835 639.534 216.302 650.11C229.596 662.283 237.864 667.022 254.234 671.31C278.824 676.925 292.835 677.445 318.061 675.598L326.599 697.116Z" fill="#55B94A" stroke="black"/>
<path d="M290.697 566.738C297.196 566.495 326.416 611.905 317.991 658.844L282.228 626.528L218.682 581.428C211.161 576.853 207.289 573.58 200.835 566.818L184.459 549.667L172.561 533.31L168.082 523.544L163.463 512.824C162.557 508.813 160.682 505.007 163.463 506.234L176.83 516.794L190.827 524.893L221.621 537.915C250.161 542.792 266.626 548.945 290.697 566.738Z" fill="#85C46A" stroke="#85C46A"/>
<path d="M326.039 697.592C329.235 700.072 331.369 701.325 334.857 700.927C335.481 695.89 334.16 690.443 328.839 676.233L320.51 655.509C319.688 651.959 319.816 650.688 319.671 649.395C319.471 635.73 318.733 628.214 316.591 615.015C315.152 606.015 313.815 601.038 309.733 592.385C303.993 580.575 299.656 574.847 290.277 565.944C281.041 558.556 275.334 554.927 263.822 549.746C251.642 544.336 244.461 542.189 231.139 539.662L220.921 537.042L195.306 526.085C189.841 524.018 186.776 522.641 181.309 519.891C176.723 516.905 174.188 515.087 169.762 511.475C167.165 508.981 164.723 506.075 163.463 506.075C162.203 506.075 162.43 507.193 162.343 508.854L163.463 517.509L164.373 526.958C164.941 540.925 165.684 547.165 167.172 557.686C168.871 568.241 169.998 573.473 172.281 581.745C175.478 592.541 177.81 597.914 182.429 606.916C187.879 617.258 191.797 622.682 199.226 632.165L210.283 644.711C217.564 652.899 222.116 656.716 230.859 662.497C240.009 667.755 245.5 669.842 255.774 672.422C263.845 674.208 268.459 674.939 276.769 675.995C288.262 677.043 294.43 677.009 305.114 676.233H311.412H317.711L322.89 687.35L326.039 697.592Z" stroke="#144C1F"/>
<path d="M286.48 591.069C283.192 583.498 280.422 580.474 273.953 577.094C279.005 588.343 280.22 594.902 281.161 606.79C278.486 595.514 276.818 589.2 271.363 578.047C265.009 567.801 260.642 563.319 251.627 557.244C261.615 567.294 266.32 573.833 273.043 587.178C278.868 598.505 279.437 605.359 278.222 616.727L270.103 610.551L268.004 599.803C265.048 588.923 262.857 582.927 257.226 572.568C256.931 574.587 184.23 543.764 185.211 545.968C186.192 548.173 228.532 594.173 270.103 610.551L278.222 616.727L293.758 628.546C293.843 621.936 293.649 618.219 292.569 611.554C291.614 603.522 290.383 599.034 286.48 591.069Z" fill="#64BC4E"/>
<path d="M316.274 651.707L319.343 660.046C319.737 661.117 318.317 661.906 317.616 661.006L313.582 655.827C308.365 650.351 306.262 645.499 301.194 639.232L293.986 632.086C291.177 629.451 289.485 627.918 286.288 625.099C255.074 599.849 231.349 595.243 197.756 562.133C197.756 562.133 178.58 543.87 171.651 528.943L166.62 516.358C166.262 515.463 167.254 514.629 168.075 515.137L168.317 515.287C168.483 515.39 168.616 515.539 168.698 515.716L176.24 531.974C176.26 532.018 176.284 532.061 176.311 532.101C181.703 540.34 185.196 544.762 191.807 552.446C199.058 560.628 203.691 564.754 211.415 570.511C212.12 571.037 213.106 570.456 212.989 569.585C212.143 563.299 211.369 559.067 209.604 551.973C209.591 551.918 209.572 551.863 209.549 551.812C207.96 548.187 206.543 545.655 204.621 542.954C203.961 542.027 204.793 541.183 205.531 542.049C207.321 544.149 208.954 546.938 211.053 551.255C215.116 560.386 216.085 565.652 216.825 574.845C216.848 575.14 217.004 575.415 217.246 575.586C227.3 582.73 233.227 586.63 244.156 593.02C254.951 598.856 260.973 602.205 271.171 609.536C280.521 616.472 287.137 621.704 293.986 627.806C297.704 631.119 301.491 634.689 305.82 638.927C306.439 639.533 307.483 639.12 307.511 638.255C307.793 629.565 307.22 624.052 305.044 614.776C302.092 603.826 299.758 599.107 293.286 589.844C287.524 581.695 283.608 576.639 278 570.099C277.258 569.234 278.256 568.061 279.193 568.71C282.996 571.343 285.887 573.996 289.717 578.331C295.913 585.581 298.84 589.983 303.364 598.261C307.119 606.718 308.87 611.638 310.572 621.128C311.841 627.291 314.357 639.643 314.352 639.947C314.346 640.262 315.591 647.74 316.226 651.528C316.236 651.59 316.252 651.648 316.274 651.707Z" fill="#3A9945"/>
<path d="M316.171 662.735C304.067 646.383 296.288 637.926 279.709 624.781C258.479 609.954 246.069 601.403 220.151 586.43C208.092 577.506 201.98 571.862 192.507 560.386C184.287 550.425 180.064 544.697 173.331 534.184M173.331 534.184C168.934 526.793 167.284 522.595 165.213 515.048M173.331 534.184C180.912 544.804 185.54 550.402 194.467 559.751C200.423 566.868 203.828 570.075 209.933 575.393C215.18 580.606 226.251 586.624 226.17 586.906C226.089 587.188 256.492 605.032 275.3 617.397C292.758 630.348 300.893 638.728 313.512 654.954" stroke="#144C1F"/>
</g>
</svg>
